<?xml version="1.0" encoding="UTF-8" standalone="no"?>
<!-- Created with Inkscape (http://www.inkscape.org/) -->

<svg
   xmlns:dc="http://purl.org/dc/elements/1.1/"
   xmlns:cc="http://creativecommons.org/ns#"
   xmlns:rdf="http://www.w3.org/1999/02/22-rdf-syntax-ns#"
   xmlns:svg="http://www.w3.org/2000/svg"
   xmlns="http://www.w3.org/2000/svg"
   xmlns:sodipodi="http://sodipodi.sourceforge.net/DTD/sodipodi-0.dtd"
   xmlns:inkscape="http://www.inkscape.org/namespaces/inkscape"
   width="210mm"
   height="297mm"
   viewBox="0 0 210 297"
   version="1.1"
   id="svg8"
   sodipodi:docname="logo-arrow-filled.svg"
   inkscape:version="0.92.3 (2405546, 2018-03-11)">
  <defs
     id="defs2">
    <inkscape:path-effect
       effect="spiro"
       id="path-effect945"
       is_visible="true" />
    <inkscape:path-effect
       effect="spiro"
       id="path-effect941"
       is_visible="true" />
    <inkscape:path-effect
       effect="spiro"
       id="path-effect937"
       is_visible="true" />
  </defs>
  <sodipodi:namedview
     id="base"
     pagecolor="#ffffff"
     bordercolor="#666666"
     borderopacity="1.0"
     inkscape:pageopacity="0.0"
     inkscape:pageshadow="2"
     inkscape:zoom="0.5"
     inkscape:cx="410.97218"
     inkscape:cy="450.49161"
     inkscape:document-units="mm"
     inkscape:current-layer="layer1"
     showgrid="false"
     inkscape:window-width="1366"
     inkscape:window-height="711"
     inkscape:window-x="0"
     inkscape:window-y="24"
     inkscape:window-maximized="1"
     inkscape:lockguides="true" />
  <metadata
     id="metadata5">
    <rdf:RDF>
      <cc:Work
         rdf:about="">
        <dc:format>image/svg+xml</dc:format>
        <dc:type
           rdf:resource="http://purl.org/dc/dcmitype/StillImage" />
        <dc:title></dc:title>
        <dc:title></dc:title>
      </cc:Work>
    </rdf:RDF>
  </metadata>
  <g
     inkscape:label="Layer 1"
     inkscape:groupmode="layer"
     id="layer1">
    <g
       id="g4834"
       transform="translate(24.451257,-13.749209)">
      <path
         sodipodi:nodetypes="ccccsssssassssasccscccc"
         inkscape:connector-curvature="0"
         id="path1016"
         d="m 26.094079,137.83337 c 34.70146,0.53343 49.46139,12.87989 63.85985,42.29402 -5.90528,30.48145 -9.82002,43.45248 11.410951,87.22911 l 30.23911,-30.4075 c 0,0 0.78442,-0.87419 0.82206,-1.41975 0.0676,-0.98009 9.6e-4,-1.76979 -0.61643,-3.05995 -0.56065,-1.17162 -2.13355,-1.79575 -2.58607,-2.08376 -2.18828,-1.39274 -5.53498,-2.9538 -6.45327,-5.95411 -1.99703,-6.52485 -0.54619,-9.04979 -0.92739,-10.23358 -0.2486,-0.772 -0.66598,-1.23061 -1.15508,-1.71704 -0.22207,-0.22086 -0.54296,-0.45469 -0.78247,-0.52018 -0.29052,-0.0795 -1.51285,0.18728 -1.56126,-0.081 0,0 -0.0691,-0.26811 -0.0977,-0.40217 -0.0432,-0.20209 1.058,-0.58821 1.17339,-0.78211 0.30206,-0.50756 0.28045,-1.2943 0.18137,-1.93426 -0.19983,-1.29076 -0.69555,-2.60188 -1.5284,-3.60803 -0.90913,-1.0983 -1.601,-1.06458 -1.84925,-1.74825 -0.68256,-1.15139 -0.0579,-6.49438 -0.0579,-6.49438 0.29008,-0.67428 2.19839,-2.0069 2.57667,-3.0795 0.47365,-1.343 0.0108,-4.63321 -2.05184,-5.57792 -7.81369,-2.90564 -12.51327,-4.21132 -20.214704,-7.03083 2.61694,-19.11353 -6.253537,-52.89831 -29.914287,-83.527183 z"
         style="fill:#ed1c24;fill-opacity:1;stroke:#000000;stroke-width:0.26458332px;stroke-linecap:butt;stroke-linejoin:miter;stroke-opacity:0" />
      <path
         sodipodi:nodetypes="ssssssssccscsccsssssssss"
         inkscape:connector-curvature="0"
         id="path4792"
         d="m 57.227913,177.23816 c -11.83128,0.53677 -22.41635,2.55322 -31.19263,10.50584 -4.35108,3.94274 -6.85291,10.40111 -6.74687,16.27187 0.15501,8.58228 5.42166,19.25485 11.66161,24.45046 6.70693,5.58444 5.35387,6.50536 22.32522,8.27401 7.32505,0.76337 14.35674,0.24994 16.92941,0.18405 15.03742,-0.38515 31.238737,-2.94737 43.506367,-7.25277 11.48897,-4.03212 30.48273,-21.00652 37.7736,-29.69342 9.60166,-11.44016 15.34953,-22.05927 15.34953,-22.05927 l -17.58634,10.85114 c 0,0 12.73797,-16.43865 18.52178,-25.06988 4.42365,-6.60145 12.54629,-20.65725 12.54629,-20.65725 0,0 4.11695,14.95202 6.26472,19.42156 1.9087,3.97203 5.88469,10.21594 5.88469,10.21594 l -14.58156,0.35149 c -6.9775,14.76811 -22.09942,33.94608 -30.00033,41.90786 -28.34505,28.56338 -53.132587,31.44753 -80.068377,30.58899 -13.91371,-0.44348 -23.60156,-4.44379 -31.16635,-8.9707 -5.39113,-3.22614 -7.35458,-3.91435 -10.60029,-7.03835 -6.23096,-5.99731 -15.88792,-15.89521 -16.5944794,-27.97753 -0.39991,-6.83873 2.6585494,-14.6832 7.5222994,-19.50732 8.86943,-8.79718 15.99785,-11.89854 35.11122,-11.95373 15.44195,-0.0446 37.76701,18.1257 27.65702,12.04728 -5.65972,-3.40279 -15.40073,-5.2131 -22.51653,-4.89027 z"
         style="opacity:1;vector-effect:none;fill:#3f48cc;fill-opacity:1;stroke:#3f48cc;stroke-width:0.1;stroke-linecap:butt;stroke-linejoin:miter;stroke-miterlimit:4;stroke-dasharray:none;stroke-dashoffset:0;stroke-opacity:1" />
    </g>
  </g>
</svg>
